<svg width="788" height="137" viewBox="0 0 788 137" fill="none" xmlns="http://www.w3.org/2000/svg">
<path d="M734.193 120.015C716.98 118.706 703.947 103.819 703.947 86.5562V54.9939C703.947 53.4668 704.555 52.0005 705.635 50.9216L732.602 23.9538C734.847 21.7078 738.487 21.7031 740.738 23.9442L766.575 49.6568C768.215 51.2888 770.863 51.2852 772.499 49.6509L777.847 44.3019C779.486 42.6627 779.484 40.0043 777.841 38.3676L742.936 3.58659C739.472 0.133049 733.864 0.139013 730.404 3.59732L692.339 41.6637C689.562 44.4413 688 48.2096 688 52.1388V86.3285C688 111.972 707.415 133.99 732.984 135.918C760.019 137.956 782.904 117.795 785.283 91.7943C785.505 89.3767 783.531 87.3155 781.104 87.3155H774.373C771.383 87.3155 769.572 88.8641 769.34 90.9503C767.436 108.15 752.176 121.382 734.193 120.015Z" fill="#080808"/>
<path d="M767.335 66.7356C765.645 74.3556 772.284 80.9933 779.904 79.3052C783.744 78.4529 786.842 75.3546 787.693 71.516C789.383 63.896 782.744 57.2572 775.124 58.9464C771.284 59.7976 768.186 62.8947 767.335 66.7356Z" fill="#080808"/>
<path d="M535.9 116.533H527.02C524.606 116.533 522.65 114.576 522.65 112.163V65.6134C522.65 63.1987 524.606 61.2414 527.02 61.2414H535.9C538.316 61.2414 540.272 63.1987 540.272 65.6134V112.163C540.272 114.576 538.316 116.533 535.9 116.533Z" fill="#080808"/>
<path d="M541.274 42.0126C541.274 47.4326 536.881 51.8259 531.461 51.8259C526.039 51.8259 521.646 47.4326 521.646 42.0126C521.646 36.5926 526.039 32.1993 531.461 32.1993C536.881 32.1993 541.274 36.5926 541.274 42.0126Z" fill="#080808"/>
<path d="M316.346 116.533C287.462 116.533 263.679 94.2707 261.258 66.0027C261.039 63.4454 263.048 61.2414 265.615 61.2414H274.536C276.779 61.2414 278.65 62.9414 278.882 65.1721C280.852 84.1027 296.903 98.9094 316.346 98.9094C335.79 98.9094 351.839 84.1027 353.811 65.1721C354.043 62.9414 355.912 61.2414 358.155 61.2414H367.076C369.644 61.2414 371.654 63.4454 371.435 66.0027C369.012 94.2707 345.231 116.533 316.346 116.533Z" fill="#080808"/>
<path d="M374.516 42.0127C374.516 48.47 369.283 53.7047 362.825 53.7047C356.369 53.7047 351.135 48.47 351.135 42.0127C351.135 35.5553 356.369 30.322 362.825 30.322C369.283 30.322 374.516 35.5553 374.516 42.0127Z" fill="#080808"/>
<path d="M281.557 42.0127C281.557 48.47 276.323 53.7047 269.867 53.7047C263.409 53.7047 258.175 48.47 258.175 42.0127C258.175 35.5553 263.409 30.322 269.867 30.322C276.323 30.322 281.557 35.5553 281.557 42.0127Z" fill="#080808"/>
<path d="M22.4583 98.9097H89.0516C91.4663 98.9097 93.4236 96.9523 93.4236 94.539V64.3817C93.4236 61.5297 92.2849 58.7963 90.2609 56.787L60.4303 27.1817C57.8436 24.6123 53.6676 24.6123 51.0796 27.1817L21.2489 56.787C19.2249 58.7963 18.0876 61.5297 18.0876 64.3817V94.539C18.0876 96.9523 20.0436 98.9097 22.4583 98.9097ZM106.676 116.534H4.83426C2.42093 116.534 0.463593 114.576 0.463593 112.162V57.043C0.463593 54.191 1.60093 51.4563 3.62493 49.4483L50.4276 2.99767C53.3756 0.0723339 58.1329 0.0723339 61.0823 2.99767L107.885 49.4483C109.908 51.4563 111.046 54.191 111.046 57.043V112.162C111.046 114.576 109.09 116.534 106.676 116.534" fill="#080808"/>
<path d="M186.763 59.0569V74.8569H201.958V78.8916H186.763V94.8262H182.459V78.8916H167.263V74.8569H182.459V59.0569H186.763Z" fill="#080808"/>
<path d="M450.232 59.0569V74.8569H465.428V78.8916H450.232V94.8262H445.93V78.8916H430.734V74.8569H445.93V59.0569H450.232Z" fill="#080808"/>
<path d="M597.492 81.5143H632.187V85.5477H597.492V81.5143ZM597.492 68.3357H632.187V72.369H597.492V68.3357Z" fill="#080808"/>
</svg>
