<svg width="2327" height="670" viewBox="0 0 2327 670" fill="none" xmlns="http://www.w3.org/2000/svg">
<path d="M229.094 590.263C143.726 583.771 79.094 509.937 79.094 424.318V267.786C79.0962 260.21 82.106 252.944 87.462 247.586L221.201 113.838C226.551 108.49 233.804 105.481 241.369 105.472C248.934 105.463 256.194 108.454 261.557 113.789L389.698 241.319C393.602 245.202 398.887 247.379 404.393 247.372C409.9 247.365 415.179 245.175 419.073 241.282L445.597 214.758C447.531 212.825 449.064 210.529 450.109 208.003C451.155 205.477 451.692 202.769 451.689 200.035C451.687 197.3 451.146 194.594 450.096 192.069C449.046 189.544 447.509 187.252 445.572 185.322L272.46 12.8268C264.205 4.60244 253.024 -0.010668 241.372 1.85256e-05C229.719 0.010705 218.547 4.6443 210.307 12.8838L21.515 201.676C7.73927 215.452 0.000143868 234.137 0 253.619V423.192C0 550.366 96.288 659.568 223.106 669.128C357.177 679.236 470.684 579.25 482.484 450.294C483.578 438.306 473.784 428.083 461.751 428.083H428.374C413.543 428.083 404.557 435.763 403.41 446.113C393.961 531.413 318.279 597.039 229.093 590.26" fill="#080808"/>
<path d="M393.466 326.016C391.466 334.609 391.689 343.569 394.114 352.052C396.538 360.534 401.084 368.259 407.322 374.498C413.56 380.736 421.285 385.282 429.768 387.706C438.251 390.131 447.211 390.353 455.804 388.354C465.223 386.199 473.844 381.431 480.678 374.599C487.511 367.767 492.279 359.146 494.435 349.727C496.434 341.134 496.211 332.174 493.786 323.691C491.362 315.209 486.816 307.484 480.578 301.246C474.339 295.008 466.615 290.462 458.132 288.037C449.65 285.612 440.69 285.389 432.097 287.388C422.678 289.545 414.058 294.314 407.225 301.146C400.392 307.979 395.623 316.6 393.466 326.019" fill="#080808"/>
<path d="M682.134 526.918V236.179C682.134 225.206 687.62 219.719 698.591 219.718H765.334C776.299 219.718 781.784 225.205 781.791 236.179V526.918C781.791 537.894 776.305 543.381 765.334 543.379H698.594C687.617 543.379 682.132 537.892 682.137 526.918" fill="#00DCD1"/>
<path d="M1067.96 385.204V527.832C1067.96 538.198 1062.78 543.379 1052.42 543.375H988.421C978.054 543.375 972.873 538.194 972.878 527.832V403.947C972.878 391.455 971.126 382.464 967.623 376.976C964.12 371.487 957.796 368.744 948.651 368.748C929.451 368.748 919.849 381.243 919.845 406.233V527.833C919.845 538.199 914.665 543.38 904.305 543.376H840.305C829.942 543.376 824.761 538.195 824.761 527.833V312.062C824.761 301.708 829.942 296.526 840.305 296.518H896.991C905.518 296.518 910.852 300.481 912.991 308.408L918.021 324.408C933.864 302.164 957.483 291.04 988.878 291.036C1016.61 291.036 1036.73 298.883 1049.22 314.578C1061.72 330.272 1067.97 353.815 1067.97 385.206" fill="#00DCD1"/>
<path d="M1269.11 531.493L1265.45 518.236C1259.05 527.074 1249.07 534.387 1235.51 540.173C1221.94 545.959 1208.91 548.854 1196.42 548.86C1164.72 548.86 1140.64 538.116 1124.19 516.63C1107.73 495.143 1099.51 462.915 1099.51 419.945C1099.51 376.972 1107.73 344.744 1124.19 323.26C1140.64 301.776 1164.72 291.034 1196.42 291.036C1209.19 291.149 1221.82 293.63 1233.68 298.351C1246.32 303.229 1255.54 309.933 1261.33 318.465V235.265C1261.33 224.907 1266.52 219.725 1276.88 219.721H1340.88C1351.23 219.721 1356.41 224.902 1356.42 235.265V527.836C1356.42 538.207 1351.24 543.387 1340.88 543.379H1285.11C1276.57 543.379 1271.24 539.418 1269.11 531.497L1269.11 531.493ZM1254.02 463.384C1259.5 454.545 1262.24 440.068 1262.24 419.952C1262.25 399.836 1259.5 385.359 1254.02 376.52C1248.53 367.685 1240.15 363.266 1228.88 363.262C1217.6 363.258 1209.3 367.601 1203.96 376.292C1198.63 384.979 1195.96 399.531 1195.96 419.949C1195.97 440.366 1198.63 454.919 1203.96 463.606C1209.29 472.293 1217.6 476.636 1228.88 476.635C1240.15 476.635 1248.53 472.217 1254.02 463.381" fill="#080808"/>
<path d="M1537.91 484.863C1558.02 484.863 1577.98 480.443 1597.8 471.605C1607.54 467.648 1614.1 470.848 1617.45 481.205L1626.6 509.548C1629.34 517.776 1626.14 524.328 1617 529.204C1591.4 542.314 1561.99 548.868 1528.77 548.864C1483.65 548.864 1448.99 537.815 1424.77 515.717C1400.54 493.619 1388.43 461.696 1388.42 419.949C1388.42 379.109 1399.85 347.413 1422.71 324.861C1445.57 302.308 1476.5 291.032 1515.51 291.034C1553.3 291.034 1582.71 302.005 1603.74 323.948C1624.77 345.89 1635.29 375.451 1635.28 412.63V434.575C1635.28 444.941 1630.1 450.123 1619.74 450.119H1482.13C1488.84 473.289 1507.43 484.87 1537.91 484.864V484.863ZM1517.8 355.032C1505.91 355.032 1496.84 358.691 1490.6 366.009C1484.35 373.327 1480.46 384.907 1478.94 400.749H1552.54V397.549C1552.54 369.206 1540.96 355.035 1517.8 355.035" fill="#080808"/>
<path d="M1681.9 296.521H1738.59C1746.82 296.521 1752 300.94 1754.13 309.779L1759.62 333.551C1765.4 322.578 1774.24 313.053 1786.13 304.975C1797.83 296.96 1811.72 292.733 1825.9 292.864C1831.39 292.864 1835.27 294.006 1837.56 296.292C1839.85 298.577 1840.99 302.31 1840.99 307.492V369.661C1840.99 377.889 1836.57 382.004 1827.73 382.006C1824.59 381.936 1821.47 381.707 1818.36 381.318C1814.79 380.896 1811.2 380.668 1807.61 380.634C1792.68 380.634 1781.26 384.443 1773.33 392.061C1765.41 399.679 1761.44 410.194 1761.45 423.607V527.832C1761.45 538.198 1756.26 543.379 1745.9 543.375H1681.9C1671.54 543.375 1666.36 538.194 1666.36 527.832V312.062C1666.36 301.708 1671.54 296.526 1681.9 296.518" fill="#080808"/>
<path d="M2061.34 472.977C2061.34 523.572 2024.46 548.868 1950.71 548.864C1919 548.864 1891.42 544.294 1867.96 535.155C1858.82 531.494 1855.47 524.939 1857.9 515.491L1866.59 485.321C1869.33 475.569 1875.89 472.217 1886.25 475.266C1902.71 480.14 1918.25 482.577 1932.88 482.577C1956.34 482.577 1968.07 478.158 1968.07 469.319C1968.07 465.366 1965.64 462.091 1960.76 459.493C1955.89 456.908 1947.35 453.632 1935.16 449.663C1925.11 446.312 1917.87 443.874 1913.45 442.348C1909.03 440.824 1902.47 437.7 1893.79 432.977C1885.11 428.254 1878.71 423.377 1874.59 418.347C1870.48 413.326 1866.67 406.316 1863.16 397.319C1859.53 387.602 1857.75 377.291 1857.91 366.919C1857.91 341.319 1867.2 322.271 1885.8 309.775C1904.39 297.279 1929.99 291.032 1962.6 291.033C1993.68 291.033 2019.28 295.148 2039.4 303.378C2048.53 307.031 2051.88 313.583 2049.45 323.034L2040.77 353.204C2038.02 362.657 2031.46 366.009 2021.1 363.259C2006.97 359.287 1992.36 357.289 1977.68 357.32C1960 357.32 1951.16 361.739 1951.16 370.578C1951.16 373.629 1952.84 376.517 1956.19 379.265C1959.51 381.991 1963.2 384.224 1967.16 385.892C1971.12 387.567 1977.37 390.082 1985.91 393.436C1996.57 397.397 2004.57 400.444 2009.9 402.578C2016.72 405.479 2023.29 408.918 2029.56 412.862C2037.34 417.595 2043.13 422.395 2046.93 427.262C2051.23 433.043 2054.61 439.442 2056.99 446.24C2060.02 454.821 2061.5 463.876 2061.34 472.977Z" fill="#080808"/>
<path d="M2229.11 484.863C2249.22 484.863 2269.18 480.443 2288.99 471.605C2298.74 467.648 2305.3 470.848 2308.65 481.205L2317.79 509.548C2320.54 517.776 2317.34 524.328 2308.19 529.204C2282.59 542.314 2253.18 548.868 2219.96 548.864C2174.85 548.864 2140.18 537.815 2115.96 515.717C2091.74 493.619 2079.62 461.696 2079.62 419.949C2079.62 379.109 2091.04 347.413 2113.9 324.861C2136.76 302.308 2167.69 291.032 2206.7 291.034C2244.49 291.034 2273.9 302.005 2294.93 323.948C2315.96 345.89 2326.47 375.451 2326.47 412.63V434.575C2326.47 444.941 2321.29 450.123 2310.93 450.119H2173.33C2180.04 473.289 2198.63 484.87 2229.11 484.864V484.863ZM2209 355.032C2197.11 355.032 2188.04 358.691 2181.79 366.009C2175.54 373.327 2171.66 384.907 2170.14 400.749H2243.74V397.549C2243.74 369.206 2232.16 355.035 2209 355.035" fill="#080808"/>
</svg>
